<svg width="247" height="128" viewBox="0 0 247 128" fill="none" xmlns="http://www.w3.org/2000/svg">
<g filter="url(#filter0_d_1_1016)">
<path d="M85.2203 60.8848C85.2203 61.7381 85.0136 62.4648 84.6003 63.0648C84.1869 63.6648 83.5936 64.1314 82.8203 64.4648C82.0469 64.7848 81.1269 64.9448 80.0603 64.9448C79.5403 64.9448 79.0403 64.9114 78.5603 64.8448C78.0803 64.7914 77.6336 64.7114 77.2203 64.6048C76.8069 64.4981 76.4403 64.3648 76.1203 64.2048V62.1648C76.6536 62.4048 77.2803 62.6248 78.0003 62.8248C78.7203 63.0114 79.4536 63.1048 80.2003 63.1048C80.8403 63.1048 81.3736 63.0181 81.8003 62.8448C82.2269 62.6714 82.5469 62.4314 82.7603 62.1248C82.9736 61.8181 83.0803 61.4581 83.0803 61.0448C83.0803 60.6048 82.9669 60.2381 82.7403 59.9448C82.5269 59.6381 82.1869 59.3581 81.7203 59.1048C81.2669 58.8381 80.6536 58.5581 79.8803 58.2648C79.3469 58.0648 78.8603 57.8448 78.4203 57.6048C77.9936 57.3514 77.6136 57.0581 77.2803 56.7248C76.9603 56.3914 76.7136 56.0048 76.5403 55.5648C76.3669 55.1248 76.2803 54.6114 76.2803 54.0248C76.2803 53.2381 76.4736 52.5648 76.8603 52.0048C77.2603 51.4448 77.8069 51.0181 78.5003 50.7248C79.1936 50.4181 80.0003 50.2648 80.9203 50.2648C81.6936 50.2648 82.4069 50.3448 83.0603 50.5048C83.7269 50.6514 84.3603 50.8581 84.9603 51.1248L84.2803 52.9048C83.7336 52.6781 83.1803 52.4914 82.6203 52.3448C82.0603 52.1981 81.4736 52.1248 80.8603 52.1248C80.3269 52.1248 79.8803 52.2048 79.5203 52.3648C79.1603 52.5248 78.8869 52.7448 78.7003 53.0248C78.5269 53.3048 78.4403 53.6314 78.4403 54.0048C78.4403 54.4448 78.5403 54.8114 78.7403 55.1048C78.9403 55.3981 79.2603 55.6714 79.7003 55.9248C80.1403 56.1648 80.7203 56.4314 81.4403 56.7248C82.2403 57.0314 82.9203 57.3648 83.4803 57.7248C84.0536 58.0848 84.4869 58.5181 84.7803 59.0248C85.0736 59.5181 85.2203 60.1381 85.2203 60.8848ZM96.6484 53.9648V64.7448H94.9484L94.6484 63.3248H94.5484C94.3217 63.6981 94.0284 64.0048 93.6684 64.2448C93.3084 64.4848 92.915 64.6581 92.4884 64.7648C92.0617 64.8848 91.6217 64.9448 91.1684 64.9448C90.3284 64.9448 89.615 64.8114 89.0284 64.5448C88.455 64.2648 88.015 63.8381 87.7084 63.2648C87.415 62.6781 87.2684 61.9314 87.2684 61.0248V53.9648H89.4084V60.7048C89.4084 61.5448 89.5817 62.1714 89.9284 62.5848C90.2884 62.9981 90.8417 63.2048 91.5884 63.2048C92.335 63.2048 92.9217 63.0581 93.3484 62.7648C93.775 62.4714 94.075 62.0448 94.2484 61.4848C94.435 60.9114 94.5284 60.2248 94.5284 59.4248V53.9648H96.6484ZM104.938 53.7648C106.231 53.7648 107.271 54.2314 108.058 55.1648C108.858 56.0981 109.258 57.4914 109.258 59.3448C109.258 60.5581 109.078 61.5848 108.718 62.4248C108.358 63.2648 107.851 63.8981 107.198 64.3248C106.545 64.7381 105.785 64.9448 104.918 64.9448C104.371 64.9448 103.891 64.8781 103.478 64.7448C103.065 64.5981 102.711 64.4114 102.418 64.1848C102.138 63.9448 101.891 63.6914 101.678 63.4248H101.538C101.578 63.6648 101.611 63.9514 101.638 64.2848C101.665 64.6048 101.678 64.8914 101.678 65.1448V69.5448H99.558V53.9648H101.278L101.578 55.4048H101.678C101.891 55.1114 102.145 54.8381 102.438 54.5848C102.731 54.3314 103.085 54.1314 103.498 53.9848C103.911 53.8381 104.391 53.7648 104.938 53.7648ZM104.438 55.5048C103.771 55.5048 103.238 55.6381 102.838 55.9048C102.438 56.1581 102.145 56.5448 101.958 57.0648C101.785 57.5714 101.691 58.2181 101.678 59.0048V59.3248C101.678 60.1514 101.765 60.8581 101.938 61.4448C102.111 62.0181 102.398 62.4581 102.798 62.7648C103.211 63.0581 103.771 63.2048 104.478 63.2048C105.078 63.2048 105.565 63.0448 105.938 62.7248C106.325 62.3914 106.611 61.9314 106.798 61.3448C106.985 60.7581 107.078 60.0781 107.078 59.3048C107.078 58.1314 106.865 57.2048 106.438 56.5248C106.011 55.8448 105.345 55.5048 104.438 55.5048ZM115.792 53.7648C116.739 53.7648 117.552 53.9648 118.232 54.3648C118.912 54.7514 119.432 55.3114 119.792 56.0448C120.166 56.7781 120.352 57.6448 120.352 58.6448V59.8048H113.112C113.139 60.9114 113.426 61.7581 113.972 62.3448C114.532 62.9314 115.312 63.2248 116.312 63.2248C117.006 63.2248 117.619 63.1648 118.152 63.0448C118.699 62.9114 119.259 62.7181 119.832 62.4648V64.2248C119.299 64.4648 118.752 64.6448 118.192 64.7648C117.646 64.8848 116.992 64.9448 116.232 64.9448C115.192 64.9448 114.272 64.7381 113.472 64.3248C112.672 63.9114 112.046 63.2981 111.592 62.4848C111.152 61.6581 110.932 60.6448 110.932 59.4448C110.932 58.2314 111.132 57.2048 111.532 56.3648C111.946 55.5248 112.512 54.8848 113.232 54.4448C113.966 53.9914 114.819 53.7648 115.792 53.7648ZM115.792 55.4048C115.032 55.4048 114.419 55.6514 113.952 56.1448C113.499 56.6381 113.232 57.3381 113.152 58.2448H118.232C118.232 57.6848 118.146 57.1914 117.972 56.7648C117.799 56.3381 117.532 56.0048 117.172 55.7648C116.812 55.5248 116.352 55.4048 115.792 55.4048ZM127.91 53.7648C128.096 53.7648 128.303 53.7781 128.53 53.8048C128.756 53.8181 128.943 53.8381 129.09 53.8648L128.87 55.8448C128.723 55.8048 128.55 55.7714 128.35 55.7448C128.15 55.7181 127.963 55.7048 127.79 55.7048C127.39 55.7048 127.003 55.7848 126.63 55.9448C126.27 56.0914 125.943 56.3114 125.65 56.6048C125.356 56.8848 125.123 57.2314 124.95 57.6448C124.79 58.0581 124.71 58.5314 124.71 59.0648V64.7448H122.59V53.9648H124.27L124.55 55.8848H124.63C124.856 55.4981 125.13 55.1448 125.45 54.8248C125.77 54.5048 126.136 54.2514 126.55 54.0648C126.963 53.8648 127.416 53.7648 127.91 53.7648ZM144.605 64.7448L143.085 60.6248H137.565L136.045 64.7448H133.805L139.225 50.4048H141.465L146.865 64.7448H144.605ZM141.045 54.7248C141.005 54.5781 140.932 54.3581 140.825 54.0648C140.732 53.7581 140.638 53.4514 140.545 53.1448C140.452 52.8248 140.378 52.5648 140.325 52.3648C140.258 52.6314 140.178 52.9248 140.085 53.2448C140.005 53.5514 139.925 53.8381 139.845 54.1048C139.765 54.3581 139.698 54.5648 139.645 54.7248L138.205 58.7448H142.485L141.045 54.7248ZM153.523 53.7648C154.816 53.7648 155.856 54.2314 156.643 55.1648C157.443 56.0981 157.843 57.4914 157.843 59.3448C157.843 60.5581 157.663 61.5848 157.303 62.4248C156.943 63.2648 156.436 63.8981 155.783 64.3248C155.13 64.7381 154.37 64.9448 153.503 64.9448C152.956 64.9448 152.476 64.8781 152.063 64.7448C151.65 64.5981 151.296 64.4114 151.003 64.1848C150.723 63.9448 150.476 63.6914 150.263 63.4248H150.123C150.163 63.6648 150.196 63.9514 150.223 64.2848C150.25 64.6048 150.263 64.8914 150.263 65.1448V69.5448H148.143V53.9648H149.863L150.163 55.4048H150.263C150.476 55.1114 150.73 54.8381 151.023 54.5848C151.316 54.3314 151.67 54.1314 152.083 53.9848C152.496 53.8381 152.976 53.7648 153.523 53.7648ZM153.023 55.5048C152.356 55.5048 151.823 55.6381 151.423 55.9048C151.023 56.1581 150.73 56.5448 150.543 57.0648C150.37 57.5714 150.276 58.2181 150.263 59.0048V59.3248C150.263 60.1514 150.35 60.8581 150.523 61.4448C150.696 62.0181 150.983 62.4581 151.383 62.7648C151.796 63.0581 152.356 63.2048 153.063 63.2048C153.663 63.2048 154.15 63.0448 154.523 62.7248C154.91 62.3914 155.196 61.9314 155.383 61.3448C155.57 60.7581 155.663 60.0781 155.663 59.3048C155.663 58.1314 155.45 57.2048 155.023 56.5248C154.596 55.8448 153.93 55.5048 153.023 55.5048ZM165.517 53.7648C166.811 53.7648 167.851 54.2314 168.637 55.1648C169.437 56.0981 169.837 57.4914 169.837 59.3448C169.837 60.5581 169.657 61.5848 169.297 62.4248C168.937 63.2648 168.431 63.8981 167.777 64.3248C167.124 64.7381 166.364 64.9448 165.497 64.9448C164.951 64.9448 164.471 64.8781 164.057 64.7448C163.644 64.5981 163.291 64.4114 162.997 64.1848C162.717 63.9448 162.471 63.6914 162.257 63.4248H162.117C162.157 63.6648 162.191 63.9514 162.217 64.2848C162.244 64.6048 162.257 64.8914 162.257 65.1448V69.5448H160.137V53.9648H161.857L162.157 55.4048H162.257C162.471 55.1114 162.724 54.8381 163.017 54.5848C163.311 54.3314 163.664 54.1314 164.077 53.9848C164.491 53.8381 164.971 53.7648 165.517 53.7648ZM165.017 55.5048C164.351 55.5048 163.817 55.6381 163.417 55.9048C163.017 56.1581 162.724 56.5448 162.537 57.0648C162.364 57.5714 162.271 58.2181 162.257 59.0048V59.3248C162.257 60.1514 162.344 60.8581 162.517 61.4448C162.691 62.0181 162.977 62.4581 163.377 62.7648C163.791 63.0581 164.351 63.2048 165.057 63.2048C165.657 63.2048 166.144 63.0448 166.517 62.7248C166.904 62.3914 167.191 61.9314 167.377 61.3448C167.564 60.7581 167.657 60.0781 167.657 59.3048C167.657 58.1314 167.444 57.2048 167.017 56.5248C166.591 55.8448 165.924 55.5048 165.017 55.5048Z" fill="white"/>
</g>
<rect x="236" y="57.3764" width="11" height="1.93861" rx="0.969306" fill="#F4BC00"/>
<rect x="175" y="57.3764" width="13" height="1.93861" rx="0.969306" fill="#F4BC00"/>
<rect y="57.3764" width="71" height="1.93861" rx="0.969306" fill="#F4BC00"/>
<path d="M207.154 66.1472C207.025 65.7734 207.025 65.5241 207.154 65.1502L209.214 60.4134C209.471 59.6656 209.729 58.9177 209.729 58.1699C209.729 57.4221 209.601 56.7991 209.216 56.1761L207.161 51.4411C206.775 50.8181 207.161 49.9456 207.804 49.8207C208.061 49.8205 208.447 49.6957 208.576 49.8203L229.915 57.5381C230.301 57.6625 230.46 57.8302 230.558 58.1609C230.7 58.6429 230.429 59.0334 229.915 59.2829L208.568 67.019C208.053 67.0192 207.411 66.6456 207.154 66.1472Z" fill="#F4BC00"/>
<path d="M195.582 59.9234C195.711 59.7987 195.839 59.674 196.097 59.6739L205.74 59.7944C206.254 59.7942 206.64 60.1679 206.511 60.5418C206.511 61.0403 206.125 61.4144 205.739 61.2899L196.224 61.294C195.71 61.2942 195.325 60.9205 195.453 60.5466C195.196 60.2974 195.454 60.0481 195.582 59.9234Z" fill="#F4BC00"/>
<path d="M200.49 55.1718C200.619 55.0471 200.747 54.9224 201.004 54.9223L205.376 54.9204C205.89 54.9202 206.276 55.2939 206.147 55.6679C206.147 56.1664 205.761 56.5404 205.375 56.416L201.004 56.4178C200.489 56.4181 200.104 56.0443 200.233 55.6704C200.104 55.5458 200.233 55.4211 200.49 55.1718Z" fill="#F4BC00"/>
<path d="M209.87 58.0401C209.87 57.2923 209.742 56.6692 209.356 56.0462L207.301 51.3112C206.916 50.6883 207.302 49.8157 207.945 49.6908C208.202 49.6907 208.588 49.5659 208.716 49.6905L229.5 57.3763C229.885 57.5008 230.143 57.7499 230.142 57.9992L209.87 58.0401Z" fill="#F4BC00"/>
<defs>
<filter id="filter0_d_1_1016" x="22.1202" y="0.264763" width="201.717" height="127.28" filterUnits="userSpaceOnUse" color-interpolation-filters="sRGB">
<feFlood flood-opacity="0" result="BackgroundImageFix"/>
<feColorMatrix in="SourceAlpha" type="matrix" values="0 0 0 0 0 0 0 0 0 0 0 0 0 0 0 0 0 0 127 0" result="hardAlpha"/>
<feOffset dy="4"/>
<feGaussianBlur stdDeviation="27"/>
<feComposite in2="hardAlpha" operator="out"/>
<feColorMatrix type="matrix" values="0 0 0 0 0.0131944 0 0 0 0 0.0302469 0 0 0 0 0.166667 0 0 0 1 0"/>
<feBlend mode="normal" in2="BackgroundImageFix" result="effect1_dropShadow_1_1016"/>
<feBlend mode="normal" in="SourceGraphic" in2="effect1_dropShadow_1_1016" result="shape"/>
</filter>
</defs>
</svg>
